<?xml version="1.0" encoding="UTF-8" standalone="no"?>
<!-- Created with Inkscape (http://www.inkscape.org/) -->

<svg
   xmlns:dc="http://purl.org/dc/elements/1.1/"
   xmlns:cc="http://creativecommons.org/ns#"
   xmlns:rdf="http://www.w3.org/1999/02/22-rdf-syntax-ns#"
   xmlns:svg="http://www.w3.org/2000/svg"
   xmlns="http://www.w3.org/2000/svg"
   xmlns:sodipodi="http://sodipodi.sourceforge.net/DTD/sodipodi-0.dtd"
   xmlns:inkscape="http://www.inkscape.org/namespaces/inkscape"
   width="210mm"
   height="297mm"
   viewBox="0 0 210 297"
   version="1.1"
   id="svg8"
   inkscape:version="0.92.0 r15299"
   sodipodi:docname="рисунок.svg">
  <defs
     id="defs2" />
  <sodipodi:namedview
     id="base"
     pagecolor="#ffffff"
     bordercolor="#666666"
     borderopacity="1.0"
     inkscape:pageopacity="0.0"
     inkscape:pageshadow="2"
     inkscape:zoom="0.35"
     inkscape:cx="1352.6743"
     inkscape:cy="560"
     inkscape:document-units="mm"
     inkscape:current-layer="layer1"
     showgrid="false"
     inkscape:object-nodes="false"
     inkscape:window-width="1597"
     inkscape:window-height="1002"
     inkscape:window-x="-2"
     inkscape:window-y="0"
     inkscape:window-maximized="0" />
  <metadata
     id="metadata5">
    <rdf:RDF>
      <cc:Work
         rdf:about="">
        <dc:format>image/svg+xml</dc:format>
        <dc:type
           rdf:resource="http://purl.org/dc/dcmitype/StillImage" />
        <dc:title />
      </cc:Work>
    </rdf:RDF>
  </metadata>
  <g
     inkscape:label="Layer 1"
     inkscape:groupmode="layer"
     id="layer1">
    <g
       id="g4672"
       transform="matrix(0.46763066,0,0,0.46763066,202.03057,112.80674)"
       inkscape:export-xdpi="11.333799"
       inkscape:export-ydpi="11.333799">
      <rect
         transform="rotate(90)"
         style="opacity:1;fill:#000000;fill-opacity:1;stroke:#000000;stroke-width:3.75699496;stroke-miterlimit:4;stroke-dasharray:none;stroke-opacity:1"
         id="rect4544"
         width="5.7674308"
         height="287.51828"
         x="32.332722"
         y="55.280396"
         ry="0.24705157" />
      <rect
         ry="0.24705157"
         y="-108.54269"
         x="-201.92325"
         height="287.51828"
         width="5.7674308"
         id="rect4542"
         style="opacity:1;fill:#000000;fill-opacity:1;stroke:#000000;stroke-width:3.75699496;stroke-miterlimit:4;stroke-dasharray:none;stroke-opacity:1" />
      <rect
         ry="0.28232962"
         y="-42.231823"
         x="-288.52838"
         height="127.19983"
         width="176.56963"
         id="rect4485"
         style="opacity:1;fill:#0000ff;fill-opacity:1;stroke:#000000;stroke-width:1.84564626;stroke-miterlimit:4;stroke-dasharray:none;stroke-opacity:1" />
      <rect
         ry="0.28232962"
         y="86.303902"
         x="-231.60797"
         height="29.621874"
         width="62.728683"
         id="rect4487"
         style="opacity:1;fill:#0000ff;fill-opacity:1;stroke:#000000;stroke-width:1.84564626;stroke-miterlimit:4;stroke-dasharray:none;stroke-opacity:1" />
      <rect
         ry="0.28232962"
         y="116.33233"
         x="-242.93394"
         height="15.101359"
         width="85.380684"
         id="rect4489"
         style="opacity:1;fill:#0000ff;fill-opacity:1;stroke:#000000;stroke-width:1.84552932;stroke-miterlimit:4;stroke-dasharray:none;stroke-opacity:1" />
      <g
         transform="matrix(0.7683303,0,0,0.7683303,-190.36967,58.967131)"
         id="g4504">
        <rect
           style="opacity:1;fill:#00ffff;fill-opacity:1;stroke:#000000;stroke-width:2.42982435;stroke-miterlimit:4;stroke-dasharray:none;stroke-opacity:1"
           id="rect4491"
           width="191.2281"
           height="130.75194"
           x="-108.46525"
           y="-111.20037"
           ry="0.37607586" />
        <path
           sodipodi:nodetypes="csssssssc"
           inkscape:connector-curvature="0"
           id="path4496"
           d="m -46.879562,-111.60279 129.288873,0.75595 c 0.20357,0.001 0.36746,0.16389 0.36746,0.36746 V 16.541664 c 0,0.20357 -0.16389,0.36745 -0.36746,0.36745 H -108.1117 c -0.20358,0 -0.42479,-0.17212 -0.36746,-0.36745 0,0 10.826844,-57.09763 24.190472,-82.41985 9.191214,-17.41607 18.306744,-27.58175 37.409126,-45.724604 z"
           style="opacity:1;fill:#00ff00;fill-opacity:1;stroke:none;stroke-width:2.40199995;stroke-miterlimit:4;stroke-dasharray:none;stroke-opacity:1" />
        <path
           style="opacity:1;fill:#ffff00;fill-opacity:1;stroke:none;stroke-width:2.2009306;stroke-miterlimit:4;stroke-dasharray:none;stroke-opacity:1"
           d="m 2.388961,-111.89607 79.38524,0.76436 c 0.16903,0.002 0.44222,-17.13649 0.30512,0.37155 -0.3677,46.955314 0.79925,84.093801 0,128.433783 -0.003,0.205784 -0.13609,0.371537 -0.30512,0.371537 H -76.425603 l 15.119048,0.76436 c 0,0 17.000466,-58.868576 28.097002,-84.472434 7.631957,-17.609774 19.736784,-27.888519 35.598514,-46.233156 z"
           id="rect4493"
           inkscape:connector-curvature="0"
           sodipodi:nodetypes="cssssccsc" />
        <path
           sodipodi:nodetypes="cssssccsc"
           inkscape:connector-curvature="0"
           id="path4498"
           d="m 57.754251,-109.70238 h 24.15223 c 0.13123,0 0.34331,-16.94799 0.23688,0.36746 -0.28547,46.438818 0.6205,83.168788 0,127.021038 -0.002,0.20352 -0.10566,0.368471 -0.23688,0.36745 l -97.11674,-0.755952 c 27.08305,-3.02381 0,0 0,0 0,0 25.71144,-51.417462 34.32629,-76.739682 5.92511,-17.41607 26.3239,-32.117464 38.63822,-50.260314 z"
           style="opacity:1;fill:#ff2a2a;fill-opacity:1;stroke:none;stroke-width:1.92856622;stroke-miterlimit:4;stroke-dasharray:none;stroke-opacity:1" />
      </g>
      <circle
         r="148.09979"
         cy="35.818451"
         cx="-198.4375"
         id="path4506"
         style="opacity:1;fill:none;fill-opacity:1;stroke:#000000;stroke-width:10.51551247;stroke-miterlimit:4;stroke-dasharray:none;stroke-opacity:1" />
      <g
         transform="matrix(0.40524399,0.28135265,-0.28135265,0.40524399,-7.3988018,-19.497803)"
         id="g4540">
        <path
           inkscape:connector-curvature="0"
           style="opacity:1;fill:#ffccaa;fill-opacity:1;stroke:#000000;stroke-width:2.20000005;stroke-miterlimit:4;stroke-dasharray:none;stroke-opacity:1"
           d="m -135.69404,48.291625 -17.18913,23.434746 c -0.10977,0 -5.49559,5.380027 -5.48959,5.489586 2.77183,49.700853 19.35679,94.365923 13.60744,143.810863 -0.50585,4.35033 -2.22543,10.44033 -3.9703,15.84761 l -40.81043,20.06027 c -0.0985,0.0484 -2.468,3.86784 -2.466,3.97754 L -190.5,330.8196 c 0.002,0.10977 0.0882,0.19843 0.19792,0.19843 h 115.2648 c 0.109728,0 0.201322,-0.0888 0.197922,-0.19843 l -2.267561,-72.93095 -41.794351,-20.62717 c -1.40306,-5.06182 -2.77293,-10.70665 -3.18585,-14.72261 -5.1402,-49.99245 13.60744,-94.31088 13.60744,-144.566885 0,-0.109728 -6.92994,-6.162524 -7.00164,-6.245614 z"
           id="rect4510" />
        <path
           style="opacity:1;fill:#ff2a2a;fill-opacity:1;stroke:#000000;stroke-width:2.20000005;stroke-miterlimit:4;stroke-dasharray:none;stroke-opacity:1"
           d="m -190.30193,331.7738 h 115.264575 c 0.10973,0 0.198068,0.0883 0.198068,0.19807 v 41.9372 c 0,0.10973 -0.109634,5.5547 -0.198068,5.48974 l -8.715941,-17.38691 -4.180226,13.60714 -10.983798,3.02381 -7.20404,-14.36309 -5.69213,14.36309 -9.47189,-9.82738 -6.0926,11.33929 -9.07142,-17.38691 -3.42428,17.38691 h -7.95999 l -6.04762,-9.07143 -4.58069,10.58333 -8.36045,-13.60714 -10.58333,12.09524 -1.51191,-9.82738 -11.38426,3.77976 c -0.10414,0.0346 -0.19807,-0.0883 -0.19807,-0.19807 v -41.9372 c 0,-0.10973 0.0883,-0.19807 0.19807,-0.19807 z"
           id="rect4514"
           inkscape:connector-curvature="0"
           sodipodi:nodetypes="ssssscccccccccccccccssss" />
        <rect
           style="opacity:1;fill:#808080;fill-opacity:1;stroke:#000000;stroke-width:1.34903157;stroke-miterlimit:4;stroke-dasharray:none;stroke-opacity:1"
           id="rect4508"
           width="113.93335"
           height="35.899612"
           x="-190.48003"
           y="269.22034"
           ry="0.12926175" />
        <path
           style="opacity:1;fill:#ff2a2a;fill-opacity:1;stroke:#000000;stroke-width:1.78943932;stroke-miterlimit:4;stroke-dasharray:none;stroke-opacity:1"
           d="m -107.18953,75.983498 c 6.10571,12.507822 -12.37558,9.646392 -26.29867,9.64639 -13.92309,-2e-6 -34.23108,1.93275 -24.1213,-9.64639 8.47602,-9.707934 13.19285,-34.758406 24.59511,-33.203394 9.22495,1.258076 20.10315,21.482209 25.82486,33.203394 z"
           id="path4533"
           inkscape:connector-curvature="0"
           sodipodi:nodetypes="sssss" />
      </g>
      <g
         transform="matrix(1.5186377,0,0,1.5983981,143.48218,-228.65723)"
         id="g4602">
        <circle
           style="opacity:1;fill:#000000;fill-opacity:1;stroke:#000000;stroke-width:1.14788377;stroke-miterlimit:4;stroke-dasharray:none;stroke-opacity:1"
           id="path4548"
           cx="-288.97491"
           cy="165.0863"
           r="3.5498676" />
        <circle
           r="3.5498676"
           cy="165.0863"
           cx="-277.85791"
           id="circle4550"
           style="opacity:1;fill:#000000;fill-opacity:1;stroke:#000000;stroke-width:1.14788377;stroke-miterlimit:4;stroke-dasharray:none;stroke-opacity:1" />
        <circle
           style="opacity:1;fill:#000000;fill-opacity:1;stroke:#000000;stroke-width:1.14788377;stroke-miterlimit:4;stroke-dasharray:none;stroke-opacity:1"
           id="circle4552"
           cx="-266.74094"
           cy="165.0863"
           r="3.5498676" />
        <circle
           r="3.5498676"
           cy="165.0863"
           cx="-255.62393"
           id="circle4554"
           style="opacity:1;fill:#000000;fill-opacity:1;stroke:#000000;stroke-width:1.14788377;stroke-miterlimit:4;stroke-dasharray:none;stroke-opacity:1" />
        <circle
           r="3.5498676"
           cy="165.0863"
           cx="-244.50694"
           id="circle4556"
           style="opacity:1;fill:#000000;fill-opacity:1;stroke:#000000;stroke-width:1.14788377;stroke-miterlimit:4;stroke-dasharray:none;stroke-opacity:1" />
        <circle
           style="opacity:1;fill:#000000;fill-opacity:1;stroke:#000000;stroke-width:1.14788377;stroke-miterlimit:4;stroke-dasharray:none;stroke-opacity:1"
           id="circle4558"
           cx="-233.38995"
           cy="165.0863"
           r="3.5498676" />
        <circle
           r="3.5498676"
           cy="165.0863"
           cx="-222.27296"
           id="circle4560"
           style="opacity:1;fill:#000000;fill-opacity:1;stroke:#000000;stroke-width:1.14788377;stroke-miterlimit:4;stroke-dasharray:none;stroke-opacity:1" />
        <circle
           style="opacity:1;fill:#000000;fill-opacity:1;stroke:#000000;stroke-width:1.14788377;stroke-miterlimit:4;stroke-dasharray:none;stroke-opacity:1"
           id="circle4562"
           cx="-211.15598"
           cy="165.0863"
           r="3.5498676" />
        <circle
           style="opacity:1;fill:#000000;fill-opacity:1;stroke:#000000;stroke-width:1.14788377;stroke-miterlimit:4;stroke-dasharray:none;stroke-opacity:1"
           id="circle4582"
           cx="-200.03899"
           cy="165.0863"
           r="3.5498676" />
        <circle
           r="3.5498676"
           cy="165.0863"
           cx="-188.922"
           id="circle4584"
           style="opacity:1;fill:#000000;fill-opacity:1;stroke:#000000;stroke-width:1.14788377;stroke-miterlimit:4;stroke-dasharray:none;stroke-opacity:1" />
        <circle
           style="opacity:1;fill:#000000;fill-opacity:1;stroke:#000000;stroke-width:1.14788377;stroke-miterlimit:4;stroke-dasharray:none;stroke-opacity:1"
           id="circle4586"
           cx="-177.80501"
           cy="165.0863"
           r="3.5498676" />
        <circle
           r="3.5498676"
           cy="165.0863"
           cx="-166.68802"
           id="circle4588"
           style="opacity:1;fill:#000000;fill-opacity:1;stroke:#000000;stroke-width:1.14788377;stroke-miterlimit:4;stroke-dasharray:none;stroke-opacity:1" />
      </g>
      <g
         id="g4628"
         transform="matrix(0,1.5186377,-1.5983981,0,63.770487,381.20986)">
        <circle
           r="3.5498676"
           cy="165.0863"
           cx="-288.97491"
           id="circle4604"
           style="opacity:1;fill:#000000;fill-opacity:1;stroke:#000000;stroke-width:1.14788377;stroke-miterlimit:4;stroke-dasharray:none;stroke-opacity:1" />
        <circle
           style="opacity:1;fill:#000000;fill-opacity:1;stroke:#000000;stroke-width:1.14788377;stroke-miterlimit:4;stroke-dasharray:none;stroke-opacity:1"
           id="circle4606"
           cx="-277.85791"
           cy="165.0863"
           r="3.5498676" />
        <circle
           r="3.5498676"
           cy="165.0863"
           cx="-266.74094"
           id="circle4608"
           style="opacity:1;fill:#000000;fill-opacity:1;stroke:#000000;stroke-width:1.14788377;stroke-miterlimit:4;stroke-dasharray:none;stroke-opacity:1" />
        <circle
           style="opacity:1;fill:#000000;fill-opacity:1;stroke:#000000;stroke-width:1.14788377;stroke-miterlimit:4;stroke-dasharray:none;stroke-opacity:1"
           id="circle4610"
           cx="-255.62393"
           cy="165.0863"
           r="3.5498676" />
        <circle
           style="opacity:1;fill:#000000;fill-opacity:1;stroke:#000000;stroke-width:1.14788377;stroke-miterlimit:4;stroke-dasharray:none;stroke-opacity:1"
           id="circle4612"
           cx="-244.50694"
           cy="165.0863"
           r="3.5498676" />
        <circle
           r="3.5498676"
           cy="165.0863"
           cx="-233.38995"
           id="circle4614"
           style="opacity:1;fill:#000000;fill-opacity:1;stroke:#000000;stroke-width:1.14788377;stroke-miterlimit:4;stroke-dasharray:none;stroke-opacity:1" />
        <circle
           style="opacity:1;fill:#000000;fill-opacity:1;stroke:#000000;stroke-width:1.14788377;stroke-miterlimit:4;stroke-dasharray:none;stroke-opacity:1"
           id="circle4616"
           cx="-222.27296"
           cy="165.0863"
           r="3.5498676" />
        <circle
           r="3.5498676"
           cy="165.0863"
           cx="-211.15598"
           id="circle4618"
           style="opacity:1;fill:#000000;fill-opacity:1;stroke:#000000;stroke-width:1.14788377;stroke-miterlimit:4;stroke-dasharray:none;stroke-opacity:1" />
        <circle
           r="3.5498676"
           cy="165.0863"
           cx="-200.03899"
           id="circle4620"
           style="opacity:1;fill:#000000;fill-opacity:1;stroke:#000000;stroke-width:1.14788377;stroke-miterlimit:4;stroke-dasharray:none;stroke-opacity:1" />
        <circle
           style="opacity:1;fill:#000000;fill-opacity:1;stroke:#000000;stroke-width:1.14788377;stroke-miterlimit:4;stroke-dasharray:none;stroke-opacity:1"
           id="circle4622"
           cx="-188.922"
           cy="165.0863"
           r="3.5498676" />
        <circle
           r="3.5498676"
           cy="165.0863"
           cx="-177.80501"
           id="circle4624"
           style="opacity:1;fill:#000000;fill-opacity:1;stroke:#000000;stroke-width:1.14788377;stroke-miterlimit:4;stroke-dasharray:none;stroke-opacity:1" />
        <circle
           style="opacity:1;fill:#000000;fill-opacity:1;stroke:#000000;stroke-width:1.14788377;stroke-miterlimit:4;stroke-dasharray:none;stroke-opacity:1"
           id="circle4626"
           cx="-166.68802"
           cy="165.0863"
           r="3.5498676" />
      </g>
    </g>
  </g>
</svg>
